<svg width="18" height="18" viewBox="0 0 18 18" fill="none" xmlns="http://www.w3.org/2000/svg">
<g clip-path="url(#clip0_204_54)">
<path d="M14.4225 11.445L12.5175 11.2275C12.06 11.175 11.61 11.3325 11.2875 11.655L9.9075 13.035C7.785 11.955 6.045 10.2225 4.965 8.09251L6.3525 6.70501C6.675 6.38251 6.8325 5.93251 6.78 5.47501L6.5625 3.58501C6.4725 2.82751 5.835 2.25751 5.07 2.25751H3.7725C2.925 2.25751 2.22 2.96251 2.2725 3.81001C2.67 10.215 7.7925 15.33 14.19 15.7275C15.0375 15.78 15.7425 15.075 15.7425 14.2275V12.93C15.75 12.1725 15.18 11.535 14.4225 11.445Z" fill="#393939"/>
</g>
<defs>
<clipPath id="clip0_204_54">
<rect width="18" height="18" fill="white"/>
</clipPath>
</defs>
</svg>
